PathFileType	4	(X/Y/Z)	Patient4_TMGait_0pt3_01_right_09.trc.trc
DataRate	CameraRate	NumFrames	NumMarkers	Units	OrigDataRate	OrigDataStartFrame	OrigNumFrames
52.044609665427	52.044609665427	4	33	mm	52.044609665427	1	       141
Frame#	Time	Sacral			L.Shoulder			Chest			R.Shoulder			Neck			R.ASIS			L.ASIS			R.Thigh.Superior			R.Thigh.Lateral			R.Thigh.Inferior			R.Patella			L.Thigh.Superior			L.Thigh.Lateral			L.Thigh.Inferior			L.Patella			L.Shank.Superior			L.Shank.Lateral			L.Shank.Inferior			R.Shank.Superior			R.Shank.Lateral			R.Shank.Inferior			R.Heel			R.Midfoot.Superior			R.Midfoot.Lateral			R.Toe			L.Heel			L.Midfoot.Lateral			L.Midfoot.Superior			L.Toe			L.Elbow			L.Wrist			R.Elbow			R.Wrist			
		X1	Y1	Z1	X2	Y2	Z2	X3	Y3	Z3	X4	Y4	Z4	X5	Y5	Z5	X6	Y6	Z6	X7	Y7	Z7	X8	Y8	Z8	X9	Y9	Z9	X10	Y10	Z10	X11	Y11	Z11	X12	Y12	Z12	X13	Y13	Z13	X14	Y14	Z14	X15	Y15	Z15	X16	Y16	Z16	X17	Y17	Z17	X18	Y18	Z18	X19	Y19	Z19	X20	Y20	Z20	X21	Y21	Z21	X22	Y22	Z22	X23	Y23	Z23	X24	Y24	Z24	X25	Y25	Z25	X26	Y26	Z26	X27	Y27	Z27	X28	Y28	Z28	X29	Y29	Z29	X30	Y30	Z30	X31	Y31	Z31	X32	Y32	Z32	X33	Y33	Z33	

1	15.520000000000	726.215571030460	1001.034480013684	459.588500164471	919.875807688419	1423.483801527148	262.343654663604	1023.744270443156	1355.511303473522	422.374683728041	946.452881402414	1434.883001982630	597.014365610150	906.782527802060	1487.151529173061	424.172313814458	955.580020208526	936.518697144036	571.470736911180	939.642326498299	950.027387931359	300.821013305366	1012.553829852276	744.275503976802	558.146112677745	947.641605505061	634.214958403779	633.994471851664	1031.519882622336	577.391471330245	560.902556994995	1031.435178532350	469.328927205716	590.023229810643	1001.316837063610	746.514955709398	340.013710704686	922.181977355299	621.389730013979	287.559329458977	1014.501489818344	551.810973890159	352.254787630898	1019.423349252030	477.188775257170	361.719593164090	979.769984314189	404.257872194287	358.084322299492	875.768369030028	300.676411439995	313.417215938498	911.357961293500	185.681460946815	384.207907430601	954.598328338245	400.876125766515	599.707332357481	832.528919524186	363.411112350522	660.020978502667	819.712495702228	252.097758263177	616.297758257933	619.303383924646	192.824229333601	586.138419343310	784.646115917612	132.424284086600	637.387507631994	674.107462923268	137.532146908502	665.681756355254	845.928728932716	30.764476704381	672.581795737301	768.713084689934	39.758389977596	433.276088093859	837.213040873609	36.496670954094	348.339647651157	923.539120299143	95.345706324921	370.688012417762	1048.659304667810	40.023531706208	331.600630789026	914.748139732776	1087.299910029605	108.175951304776	1108.807656865608	915.843290876028	71.945100336355	930.653871165448	1085.360442124317	721.683522018260	1039.567730494780	848.341857638341	741.243271449074	
2	15.539214285714	723.672762892688	1000.081621212958	455.986420885971	922.148622103545	1422.169678108704	260.819610964504	1022.921528717104	1353.928722829835	422.556536476562	942.817150615800	1433.516781816554	595.839785709138	906.750236409119	1486.084867309026	422.254559588232	952.444687181810	936.396238341403	571.250720429813	938.726083976737	948.548222221229	299.825917511192	1013.354354999651	747.444604304219	556.949638015739	951.587870727570	636.057659847583	633.103280632724	1037.153871701614	581.346079144297	560.223301234117	1039.227104879671	472.449969446986	589.510885614910	999.692893424877	745.059842078324	338.511819267408	920.513332818965	620.059454480883	286.609061287362	1012.596602050555	550.540609051644	351.727960224267	1017.354586132256	475.845533768756	361.600245485772	977.005911245663	402.894041094311	357.937999179968	872.287352471446	300.098371595490	313.076335342149	906.536598119240	184.981290594925	384.187815309459	961.670290461431	403.603810092117	598.524091315947	838.378341715206	367.728034836522	657.265462714978	825.063234738813	256.196575001134	613.840719264939	624.602452090126	198.791837019812	581.121440268621	788.768435763077	136.561022902272	634.396681563781	677.832381891429	142.936349765835	661.417363193177	848.114245460311	31.597429945335	670.875591194966	762.773859726889	39.737250897694	433.189650133491	831.306274996344	36.428618660370	348.267091098582	917.672167271607	95.246812928712	370.723043491715	1042.766593182887	39.960930107525	331.566611803033	920.254849514573	1086.636364302753	105.633888291718	1118.546175012076	920.018795968541	73.069625517319	912.860604432009	1085.543401256231	718.817012526809	1005.735328128310	843.835484927929	740.909513942596	
3	15.558428571429	721.105065348264	999.371856315898	452.339827014851	924.486272658548	1421.029896926061	259.365609530392	1022.092876639047	1352.542981646865	422.837923747298	939.139019881579	1432.390554514428	594.700198125380	906.735927256440	1485.203140655891	420.412560897287	949.119927889928	936.414510230990	571.035433116124	937.825774536697	947.234894777951	298.913767574247	1013.902037409064	750.773371525142	555.863174775933	955.238856598653	638.104160842323	632.293348076900	1042.477892684442	585.507393997170	559.625237304989	1046.785943652236	475.859728125598	589.105435836160	997.871512978593	743.671844759062	337.107778301075	918.494342559212	618.891765145334	285.672481496323	1010.215937518476	549.318315931608	351.251621233724	1014.734983308108	474.604211936403	361.536662066552	973.760234046983	401.658439315219	357.804825159249	868.417123435298	299.560587833396	312.733473551351	901.439838371801	184.339774434835	384.168689225311	968.686989691997	406.472125430176	597.417637870415	844.255295004605	371.713437305715	654.567151035326	830.815532795938	259.929500262162	611.406074048938	630.420043958843	203.549125956025	576.152204907712	793.762885434844	140.311985563591	631.476783477263	682.369509459256	147.320876326373	657.165930078490	851.736581954594	32.440182764778	669.054762309877	756.673346366847	39.699871846483	433.105716034424	825.241846051220	36.355254729010	348.189910373560	911.639454609214	95.148292702697	370.749741099985	1036.717393306895	39.908624955594	331.534905324752	925.720871480869	1086.065502952488	103.322480175467	1128.322108161655	924.483935750649	74.733813795644	894.813164671470	1086.210488724923	715.995831069611	971.701052780634	840.049967466970	740.537816417811	
4	15.577642857143	718.577735489506	999.055517558328	448.744477929922	926.868913661420	1420.183276307181	258.073204119822	1021.288091450331	1351.490699827297	423.272581145407	935.509910402527	1431.662927161021	593.653486766342	906.757816343675	1484.625195563019	418.745757852173	945.608792672292	936.650899697461	570.852163500320	936.984135242758	946.216040185171	298.164386404645	1014.029703639278	754.230715302685	554.975153250126	958.304898258916	640.381133193664	631.629940800097	1047.130171916784	589.826255002964	559.163713881087	1053.714420145209	479.590795451551	588.866245154150	995.788936235003	742.420943201444	335.911126454084	915.994400138880	618.002792945337	284.791899009532	1007.167164404028	548.209047917541	350.871818572136	1011.339384186348	473.558220243002	361.555334992030	969.866985493533	400.660646210546	357.692399350855	864.060795958779	299.104586355636	312.397764024291	896.074294777718	183.812247671274	384.149681461932	975.386886874304	409.461075979059	596.470127819735	850.020044794039	375.062472056669	652.053900881130	837.053425928482	262.997108117304	609.108454243473	636.973790046928	206.322071023416	571.451486150237	799.989971657154	143.352072492109	628.750594170933	688.114873850056	150.053596439914	653.113077304956	857.486197445394	33.319351249418	667.178568015967	750.510193181870	39.641749097398	433.027979539737	819.119845168975	36.277151442937	348.108820231438	905.537873328621	95.055662182418	370.762036766671	1030.612004897521	39.873659663323	331.508154967919	930.966817789959	1085.652445022985	101.437441839224	1137.846043505603	929.261774202704	77.193526851464	876.960625536590	1087.588748849797	713.331780453452	938.475194016546	837.455459832331	740.134546319925	
